<?xml version="1.0" encoding="UTF-8"?>
<svg width="208px" height="70px" viewBox="0 0 208 70" version="1.1" xmlns="http://www.w3.org/2000/svg" xmlns:xlink="http://www.w3.org/1999/xlink">
    <!-- Generator: Sketch 50.2 (55047) - http://www.bohemiancoding.com/sketch -->
    <title>ClubWed</title>
    <desc>Created with Sketch.</desc>
    <defs>
        <path d="M21,70 C-15.166673,70 -4.11111953,70 54.1666603,70 C112.44444,70 170.72222,70 229,70 L229,0 L21,0 L21,70 Z" id="path-1"></path>
    </defs>
    <g id="Desktop" stroke="none" stroke-width="1" fill="none" fill-rule="evenodd">
        <g id="00.login" transform="translate(-110.000000, -55.000000)">
            <g id="CONTENT:-login" transform="translate(-6.000000, 55.000000)">
                <g id="ClubWed" transform="translate(95.000000, 0.000000)">
                    <path d="M37.1550525,19.8428022 C28.7399279,19.8428022 21.8551836,26.4063848 21.8551836,34.4777062 C21.8551836,42.5495122 28.7399279,49.1567132 37.1550525,49.1567132 C41.0700131,49.1567132 44.6702426,47.7381496 47.3700459,45.3876087 L48,45.9638547 C45.1202098,48.447189 41.2952426,50 37.1550525,50 C28.2899607,50 21,42.9929648 21,34.4777062 C21,25.9629323 28.2899607,19 37.1550525,19 C41.2952426,19 45.0749672,20.5077387 47.9552492,22.9915578 L47.3700459,23.5682884 C44.6702426,21.2172628 41.0700131,19.8428022 37.1550525,19.8428022" id="Fill-1" fill="#000000"></path>
                    <mask id="mask-2" fill="white">
                        <use xlink:href="#path-1"></use>
                    </mask>
                    <g id="Clip-4"></g>
                    <polygon id="Fill-3" fill="#000000" mask="url(#mask-2)" points="57 47 58 47 58 15 57 15"></polygon>
                    <path d="M90,25 L90,48 L89.0345677,48 L89.0345677,41.2823082 C87.4898759,45.5084549 83.8692408,47.9105475 78.6553786,48 C72.5726272,48 69,44.6183048 69,38.9244557 L69,25 L69.9654323,25 L69.9654323,38.9244557 C69.9654323,44.0849926 73.200422,47.1098499 78.6553786,47.1098499 C85.1723107,46.9766434 89.0345677,42.9284295 89.0345677,36.2549778 L89.0345677,25 L90,25 Z" id="Fill-5" fill="#000000" mask="url(#mask-2)"></path>
                    <path d="M124.004049,35.8731921 C124.004049,29.9216766 119.173415,25.5659666 112.5,25.5659666 C105.826585,25.5659666 100.995951,29.9216766 100.995951,35.8731921 C100.995951,41.8247076 105.826585,46.1375298 112.5,46.1375298 C119.173415,46.1375298 124.004049,41.8247076 124.004049,35.8731921 M125,35.8731921 C125,42.2993019 119.720916,47 112.5,47 C107.121321,47 102.838188,44.4125895 100.995951,40.4447554 L100.995951,47 L100,47 L100,15 L100.995951,15 L100.995951,31.2587411 C102.838188,27.2909069 107.121321,24.7034964 112.5,24.7034964 C119.720916,24.7034964 125,29.4041945 125,35.8731921" id="Fill-6" fill="#000000" mask="url(#mask-2)"></path>
                    <path d="M171.844588,3.56661832 C170.966484,5.60568432 170.087861,7.64571327 169.209756,9.78733441 C169.099864,10.1956291 168.880079,10.6029608 168.770186,11.1133292 C168.660293,12.4388424 168.001974,13.6627635 167.12387,14.8866846 C166.684299,15.39609 166.245247,16.0080505 167.12387,16.5179374 C166.684299,17.9455243 166.355139,19.4756664 166.025461,20.9032533 C164.817679,25.1860141 163.500522,29.4697379 162.402632,33.650425 C161.304743,37.7300015 159.438123,41.5033569 157.90118,45.378786 C157.13245,47.3162598 156.474131,49.254215 155.704882,51.1916888 C154.606993,53.8431969 153.399729,56.4947049 152.301839,59.1462129 C151.642483,61.0836867 150.984164,63.0211605 151.423216,64.9591158 C151.53259,65.9788895 150.984164,66.7945159 150.215433,67.3044028 C149.447222,67.9163633 148.458706,68.2221028 147.470709,67.8142896 C146.372819,67.3044028 145.384822,66.5903686 144.286932,66.0809632 C143.518202,65.7747422 143.189042,65.0611894 143.189042,64.3466737 C143.07915,63.2253078 143.189042,62.1034604 143.189042,60.8795393 C143.07915,59.7576919 143.07915,58.636326 142.969257,57.5144786 C142.969257,57.0041103 143.07915,56.3926312 143.07915,55.8827443 C143.07915,54.9650443 143.189042,54.1489364 143.189042,53.2307548 C143.189042,51.7015757 142.969257,50.1719151 142.969257,48.7438467 C142.969257,47.4183334 143.189042,46.1944124 143.189042,44.8684176 C143.298935,44.2569385 142.969257,43.5429043 143.07915,42.8293516 C143.189042,40.0757699 143.408828,37.3217068 143.627576,34.5686066 C143.957254,30.693659 143.847362,26.9203036 143.737469,23.1469481 C143.627576,20.1892191 143.737469,17.2319716 143.737469,14.3763162 C143.737469,13.0503215 143.737469,11.6227345 143.627576,10.2972213 C143.627576,10.0935554 143.408828,9.99148175 143.408828,9.78733441 C143.189042,9.88940808 143.07915,9.99148175 142.969257,10.1956291 C142.859364,10.3988135 142.749472,10.6029608 142.749472,10.8071081 C142.200527,14.0700952 140.11464,16.8236769 139.126643,19.9855533 C139.126643,20.0876269 139.01675,20.2912928 138.906857,20.3933665 C138.577179,20.8011797 138.24802,21.1074007 137.91886,21.5147324 C138.028753,21.1074007 138.138646,20.699106 138.24802,20.2912928 C139.01675,18.353819 139.675069,16.4158637 140.443799,14.4783899 C140.553692,14.1721689 140.443799,13.8669108 140.553692,13.5606898 C140.334425,13.7648372 140.004747,13.968503 139.894855,14.2742426 C139.01675,16.4158637 138.24802,18.6595585 137.369915,20.8011797 C136.381918,23.2490218 135.284028,25.6963825 134.186139,28.1437431 C133.856461,28.9593695 133.197623,29.6738852 133.746568,30.4895116 C134.295513,29.8775511 134.844458,29.3676642 135.284028,28.7557037 C135.722562,28.1437431 135.942348,27.4301904 136.272026,26.7161562 C136.381918,26.6140825 136.491293,26.5120089 136.601185,26.3078615 C136.601185,26.5120089 136.711078,26.6140825 136.601185,26.7161562 C136.381918,27.4301904 136.162133,28.1437431 135.942348,28.8577774 C135.064243,30.693659 134.295513,32.6306513 133.966353,34.6706802 C133.746568,36.3024145 133.08773,37.9341488 132.428893,39.4638094 C131.989841,40.6877305 131.660681,41.8095779 131.660681,42.9309438 C131.770055,43.644978 131.770055,44.3590122 131.001843,44.9704913 C130.782058,45.0725649 130.45238,45.4808596 130.562273,45.6845255 C130.672166,47.9282203 128.696171,49.7636204 128.586279,51.9052416 C128.476386,53.1291626 126.939444,53.9452705 125.841554,53.3328285 C124.523879,52.6192758 122.877044,52.3130548 121.779154,51.1916888 C121.559369,50.8854678 121.340102,50.5797283 121.23021,50.1719151 C120.791157,48.2339598 120.791157,46.1944124 120.681265,44.1548649 C120.681265,43.2371648 120.351587,42.3189833 120.351587,41.2992095 C120.242212,38.6477015 120.461479,35.8946013 120.242212,33.1410196 C120.13232,31.611359 120.351587,30.0812169 120.022427,28.5520378 C119.912534,27.9400773 120.242212,27.2260431 120.242212,26.6140825 L120.242212,20.9032533 C120.242212,20.2912928 120.351587,19.5772586 120.461479,18.965298 C120.461479,18.6595585 120.571372,18.353819 120.571372,18.1496716 C119.912534,16.4158637 120.681265,14.6825372 120.681265,12.9487293 C120.791157,11.2149213 120.791157,9.58318707 120.90105,7.84986061 C120.90105,6.93167906 121.99894,5.60568432 122.877044,5.60568432 C123.755667,5.50409213 124.96345,4.99420526 125.731661,6.11605266 C126.171232,6.82960539 126.939444,7.33997374 127.488389,8.05352647 C127.817548,8.56341334 127.817548,9.27744754 127.817548,9.88940808 C127.598281,13.5606898 127.269122,17.2319716 127.159229,20.9032533 C127.159229,22.5349876 127.598281,24.1667219 127.708174,25.7984561 C127.817548,26.7161562 127.708174,27.6338563 127.488389,28.5520378 C126.939444,31.4072117 126.829551,34.0587197 127.488389,36.8123014 C127.598281,37.6279278 127.598281,38.6477015 127.598281,39.5658831 C127.598281,39.7695489 127.488389,40.0757699 127.598281,40.3815095 C127.708174,40.4835831 127.817548,40.6877305 128.037334,40.7898041 C128.147226,40.7898041 128.367012,40.5856568 128.476386,40.4835831 C128.696171,39.9736963 128.915957,39.4638094 129.135223,38.8518489 C130.233632,35.8946013 131.111736,32.9368723 132.319519,29.9791433 C132.978356,28.3478905 133.856461,26.8182299 134.624673,25.1860141 C135.064243,24.2683141 135.393921,23.4526877 135.722562,22.6365798 C136.82097,19.271519 138.028753,16.0080505 139.126643,12.744582 C139.565695,11.5211424 139.784962,10.2972213 140.224533,9.07378168 C140.773477,7.23790007 141.432315,5.40249994 142.529686,3.66869199 C143.07915,2.95465779 143.298935,2.03647624 143.737469,1.22084984 C144.286932,-0.104663423 145.055144,-0.308810762 146.262926,0.405223445 C146.482193,0.608889304 146.701979,0.710962974 147.031657,0.710962974 C148.897758,0.915110313 150.215433,1.93440257 150.435219,3.66869199 C150.764378,6.013979 151.094056,8.35974748 151.423216,10.7050345 C151.423216,11.0112555 151.423216,11.316995 151.53259,11.6227345 C152.301839,13.6627635 152.082053,15.9059768 152.191946,18.047598 C152.301839,22.6365798 152.191946,27.2260431 152.960158,31.7129512 C153.179943,33.2430933 152.740891,34.9764198 152.740891,36.5060804 C152.630998,37.2201146 152.630998,37.9341488 152.630998,38.6477015 C152.740891,39.7695489 152.850265,40.8913963 151.972161,42.0132437 C151.752376,42.3189833 151.752376,42.8293516 151.862268,43.2371648 C151.972161,44.9704913 152.411731,46.6022256 151.752376,48.5396994 C151.53259,49.0500677 151.752376,49.7636204 151.752376,50.375581 C151.752376,50.5797283 151.862268,50.6813205 151.972161,50.7833942 C152.082053,50.6813205 152.301839,50.5797283 152.301839,50.375581 C152.960158,49.0500677 153.728888,47.724073 154.277833,46.296486 C155.59499,43.0330175 156.912665,39.7695489 158.120447,36.5060804 C159.108963,33.5488328 159.877175,30.5915853 160.755279,27.7359299 C161.96358,23.5547613 163.280737,19.4756664 164.489038,15.2940163 L164.489038,15.0903504 C164.817679,14.6825372 165.037464,14.1721689 165.257249,13.6627635 L165.257249,15.1924241 C165.147357,15.702311 165.037464,16.2121978 164.927572,16.7220847 C164.927572,16.9257506 165.037464,17.0278242 165.037464,17.2319716 C165.257249,17.1298979 165.586409,17.0278242 165.806194,16.8236769 C165.915569,16.5179374 166.025461,16.2121978 166.025461,15.9059768 C166.025461,14.4783899 166.794192,13.2544688 167.343136,12.0310292 C168.001974,10.3988135 168.550919,8.76756068 169.209756,7.1358264 C169.209756,6.93167906 169.319649,6.72753172 169.319649,6.52386586 C169.319649,6.42227367 169.099864,6.21812633 168.989971,6.21812633 C168.880079,6.21812633 168.660293,6.3202 168.550919,6.3202 C168.441545,6.42227367 168.331652,6.52386586 168.331652,6.62593953 C167.672296,8.35974748 166.904084,9.99148175 166.245247,11.6227345 C166.135354,11.9289556 166.135354,12.2346951 165.915569,12.4388424 C165.915569,12.5409161 165.586409,12.6429898 165.477035,12.6429898 C165.367142,12.6429898 165.257249,12.4388424 165.257249,12.3367688 C165.367142,12.0310292 165.477035,11.7248082 165.586409,11.5211424 C167.12387,8.35974748 167.453029,4.89213159 169.429542,1.73073671 C169.539434,1.52707085 169.539434,1.32292351 169.758701,1.11877617 C169.868076,1.0167025 170.197754,0.813036644 170.307646,0.813036644 C170.527432,0.915110313 170.636806,1.22084984 170.746699,1.42499718 C170.746699,1.52707085 170.636806,1.62914452 170.636806,1.73073671 C170.527432,2.13854991 170.307646,2.54684459 170.197754,2.95465779 C170.527432,2.64891826 170.746699,2.34269725 171.076376,2.03647624 C171.515429,1.73073671 171.954481,1.73073671 171.954481,2.24062358 C172.064374,2.64891826 171.954481,3.15832365 171.844588,3.56661832" id="Fill-7" fill="#000000" mask="url(#mask-2)"></path>
                    <path d="M184.786323,28.0854663 C184.677353,27.7899501 184.350956,27.6912895 184.133015,27.3957733 C183.588677,26.7056149 183.153309,26.6069543 182.5,27.1984522 C182.173603,27.592629 181.955662,28.0854663 181.62875,28.4801085 C181.411837,28.8738199 181.302867,29.3671226 181.084926,29.7612994 C180.540074,30.746974 180.10522,31.7326486 179.778309,32.8169838 C179.451911,34.0986401 178.798603,35.2811704 177.818383,36.2668451 C177.274558,36.9565381 177.056617,37.7458224 176.838677,38.2381944 C176.838677,39.2243344 177.056617,39.4211901 177.818383,39.0270133 C179.669338,38.0413387 181.193897,36.6614872 182.5,35.0843147 C183.806617,33.3102865 184.350956,31.2398113 185.113235,29.3671226 C185.222205,28.9724804 185.004264,28.4801085 184.786323,28.0854663 M195.89103,39.3225296 C194.911323,41.4911999 191.536323,44.5468844 190.12125,46.4195731 C188.596691,48.4900484 184.133015,53.2211005 182.391544,55.0937892 C181.084926,56.474106 179.23397,57.1637991 177.274558,56.9669434 C175.85897,56.8682828 174.334926,56.6714271 172.919338,55.784413 C170.850956,54.3054357 169.326911,52.5309421 169.217941,50.0667555 C169.10897,49.2784019 169,48.3913878 169,47.6025689 C169.10897,45.0397217 169.544338,42.4768746 170.415588,40.012688 C171.177353,38.0413387 171.830662,36.069524 172.701397,34.1973006 C174.116985,31.2398113 175.85897,28.4801085 178.363235,26.1145824 C179.01603,25.5226192 179.669338,25.1284424 180.649044,25.1284424 C181.411837,25.1284424 182.064632,25.1284424 182.717941,25.0302472 C184.350956,24.8329261 185.548089,25.6212797 186.528309,26.8042754 C187.072647,27.4939685 187.616985,28.0854663 188.052353,28.8738199 C188.270294,29.1698015 188.379264,29.6631042 188.270294,29.9581551 C187.725956,31.8313092 187.290588,33.7039979 186.310882,35.379831 C185.331176,37.0551986 184.024558,38.3368549 182.60897,39.6185112 C181.084926,40.8010415 179.778309,42.1813583 177.927353,43.167033 C177.491985,43.3638887 177.165588,43.9558519 176.729706,44.3495633 C176.511765,44.4482239 176.403309,44.7442055 176.185882,44.7442055 C175.205662,44.9415266 174.988235,45.7298801 174.879264,46.5182337 C174.661323,48.4900484 174.334926,50.3627371 175.096691,52.4322816 C175.423603,53.2211005 175.75,53.5166167 176.620736,53.1229053 C177.927353,52.6296026 179.125,52.0385701 180.431617,51.4466069 L180.431617,51.5452674 L180.431617,51.4466069 C182.391544,49.9680949 187.399558,45.6312196 189.141544,43.9558519 C190.12125,42.9697119 192.842941,40.9983626 193.604706,40.012688 C194.040588,39.4211901 194.693383,38.8296922 195.455662,38.7314971 C195.673603,38.7314971 195.89103,38.8296922 196,39.0270133 C196,39.1256739 196,39.2243344 195.89103,39.3225296" id="Fill-8" fill="#000000" mask="url(#mask-2)"></path>
                    <path d="M208.307481,31.1305921 C207.977949,29.4196933 205.999722,28.9170188 204.790575,30.1242928 C204.130993,30.8288924 203.471411,31.5334919 202.921846,32.3383413 C202.481778,32.9422159 201.822715,33.5460905 201.712698,34.2502149 C201.492665,35.9611137 201.272631,37.2695878 200.723585,39.1814614 C200.503551,40.0875109 200.173501,40.4894605 199.953986,41.3950348 C199.624455,42.8042339 199.514438,43.6095584 199.404421,45.1185322 C199.294404,47.5340305 199.624455,49.3456543 199.733952,51.2570528 C199.733952,51.6599526 200.723585,51.2570528 200.833602,51.156803 C201.053116,50.9558282 201.162614,50.8551032 201.272631,50.6536533 C202.371761,49.2449294 203.471411,47.9364552 204.460524,46.5277313 C205.559655,45.2192571 206.878819,44.3136828 207.538401,42.5025341 C207.647899,42.0996343 207.647899,41.8986595 207.757915,41.5964847 C208.087966,40.7916353 208.637531,40.4894605 208.967063,39.5838861 C209.406611,38.376137 209.186577,37.5712876 209.077079,36.4647385 C208.967063,34.6531147 208.637531,32.8414909 208.307481,31.1305921 M228.422396,6.9789343 C228.092865,7.48208393 227.872831,7.98523357 227.872831,8.48838321 C227.872831,9.59540744 227.432764,10.7024317 226.883717,11.7082558 C226.004621,13.7208544 224.685457,15.935378 224.135892,18.0487015 C223.695824,19.5581504 222.926744,20.8661494 222.816728,22.4763233 C222.37666,25.7969209 221.168032,28.9170188 220.398433,32.1368914 C219.848868,34.6531147 219.189805,37.0681379 219.079788,39.5838861 C218.969771,41.294785 218.529704,43.0052087 218.859755,44.7165826 C218.859755,45.0178072 218.859755,45.2192571 218.749738,45.521432 C218.090675,47.9364552 218.529704,50.3514785 218.529704,52.7669768 C218.749738,56.1882994 218.969771,59.509372 219.189805,62.9311697 C219.189805,63.937469 219.738851,65.0444932 219.628834,66.1510423 C219.628834,66.7549169 219.738851,67.0566166 220.178919,67.6609663 C220.398433,67.962191 219.848868,68.4658157 219.958885,68.7675155 C220.398433,69.472115 220.068902,69.7738147 219.40932,69.9752646 C218.419687,70.0759896 217.650607,69.8745397 216.881009,69.2706651 C215.34233,68.0629159 214.2432,66.5539421 214.023685,64.6415934 C213.693634,62.0251202 213.253567,59.509372 213.034052,56.8928989 C212.704521,53.1694015 212.594504,49.5466291 212.37447,45.8231317 L212.37447,43.6095584 C212.37447,43.5088334 212.264454,43.4081085 212.154956,43.3073835 C212.044939,43.2066586 211.934922,43.4081085 211.824905,43.4081085 C211.714888,43.5088334 211.714888,43.6095584 211.604872,43.6095584 C210.945809,44.8168324 210.286227,46.0245816 209.626645,47.2323308 L206.658785,52.364077 C206.328735,52.7669768 206.109739,53.1694015 205.889705,53.5718262 C205.339621,54.4778756 204.790575,55.1820001 203.910959,55.7863498 C203.031862,56.2890243 202.371761,56.9936238 201.712698,57.5974984 C200.503551,58.8047725 199.404421,59.0062224 198.085776,57.9999231 C193.578719,54.5786006 192.04004,47.7350053 193.578719,42.5025341 C194.897883,38.0744372 197.425675,33.8477902 200.283518,30.1242928 C200.943619,29.3189683 201.932732,28.8162938 202.591795,28.0114444 C202.591795,27.9107195 202.811829,27.9107195 202.921846,27.9107195 C204.350507,27.7092696 205.889705,27.5078197 207.318367,27.5078197 C208.197464,27.5078197 209.077079,27.9107195 209.626645,28.6148439 L209.956695,28.9170188 C211.27534,29.5204182 211.385357,30.6274425 211.385357,31.9354415 C211.495374,32.7412411 211.714888,33.4453655 211.934922,34.2502149 C212.044939,34.3509398 212.264454,34.4516648 212.37447,34.5523897 C212.484487,34.4516648 212.594504,34.3509398 212.594504,34.1494899 C212.814538,33.7475404 212.924036,33.2439156 213.144069,32.8414909 C214.352697,30.5267175 214.572731,27.9107195 215.34233,25.4952211 C216.221427,22.5770482 217.21054,19.7591252 218.090675,16.8409523 C218.639721,15.3315034 219.40932,13.3189048 219.958885,11.7082558 C220.398433,10.7024317 220.837982,9.79685735 221.27753,8.79008295 C222.157146,6.77748439 223.805841,5.36828531 224.57544,3.35616187 C225.014988,2.55083738 225.67457,2.14841269 226.44365,2.04768774 C226.883717,1.94696278 227.432764,1.94696278 227.542781,2.65156233 C227.542781,3.15471197 227.982848,3.25543692 228.422396,3.25543692 C228.861945,3.35616187 229.081978,3.55713665 228.971961,4.06028629 C228.971961,5.06706069 228.971961,6.07335997 228.422396,6.9789343" id="Fill-9" fill="#000000" mask="url(#mask-2)"></path>
                </g>
            </g>
        </g>
    </g>
</svg>